<svg width="28" height="28" viewBox="0 0 28 28" fill="none" xmlns="http://www.w3.org/2000/svg">
<path d="M13.9978 11.3322C12.5289 11.3322 11.3301 12.531 11.3301 14C11.3301 15.469 12.5289 16.6678 13.9978 16.6678C15.4668 16.6678 16.6656 15.469 16.6656 14C16.6656 12.531 15.4668 11.3322 13.9978 11.3322ZM21.9991 14C21.9991 12.8953 22.0091 11.8005 21.9471 10.6978C21.885 9.4169 21.5928 8.28014 20.6562 7.3435C19.7176 6.40487 18.5829 6.11467 17.302 6.05263C16.1973 5.99059 15.1026 6.0006 13.9999 6.0006C12.8951 6.0006 11.8004 5.99059 10.6977 6.05263C9.41684 6.11467 8.28009 6.40687 7.34348 7.3435C6.40486 8.28214 6.11467 9.4169 6.05263 10.6978C5.99059 11.8025 6.0006 12.8973 6.0006 14C6.0006 15.1027 5.99059 16.1995 6.05263 17.3022C6.11467 18.5831 6.40686 19.7199 7.34348 20.6565C8.28209 21.5951 9.41684 21.8853 10.6977 21.9474C11.8024 22.0094 12.8971 21.9994 13.9999 21.9994C15.1046 21.9994 16.1993 22.0094 17.302 21.9474C18.5829 21.8853 19.7196 21.5931 20.6562 20.6565C21.5948 19.7179 21.885 18.5831 21.9471 17.3022C22.0111 16.1995 21.9991 15.1047 21.9991 14ZM13.9978 18.1048C11.7264 18.1048 9.89315 16.2715 9.89315 14C9.89315 11.7285 11.7264 9.89523 13.9978 9.89523C16.2693 9.89523 18.1025 11.7285 18.1025 14C18.1025 16.2715 16.2693 18.1048 13.9978 18.1048ZM18.2707 10.6858C17.7403 10.6858 17.312 10.2575 17.312 9.72711C17.312 9.19675 17.7403 8.76847 18.2707 8.76847C18.801 8.76847 19.2293 9.19675 19.2293 9.72711C19.2294 9.85305 19.2048 9.97778 19.1566 10.0942C19.1085 10.2105 19.0379 10.3163 18.9489 10.4053C18.8598 10.4944 18.7541 10.565 18.6377 10.6131C18.5213 10.6612 18.3966 10.6859 18.2707 10.6858Z" fill="#1D1D1D"/>
</svg>
